<?xml version="1.0" encoding="utf-8"?>
<!-- Generator: Adobe Illustrator 27.2.0, SVG Export Plug-In . SVG Version: 6.00 Build 0)  -->
<svg version="1.1" id="Layer_1" xmlns="http://www.w3.org/2000/svg" xmlns:xlink="http://www.w3.org/1999/xlink" x="0px" y="0px"
	 viewBox="0 0 699.1 951.2" style="enable-background:new 0 0 699.1 951.2;" xml:space="preserve">
<style type="text/css">
	.st0{fill:#013369;}
	.st1{fill:#FFFFFF;}
	.st2{fill:#D50A0A;}
</style>
<g>
	<path class="st0" d="M352.9,255l-43-22c1.4-2.2,3-4.3,4.6-6.4l43.6,22.3C356.3,250.8,354.6,252.9,352.9,255z M374,231.2l-44.3-22.7
		c-1.7,1.7-3.4,3.5-5,5.3l44.2,22.6C370.7,234.8,372.4,233.1,374,231.2z M392,214l-43.8-22.4c-2.1,1.7-4.2,3.5-6.4,5.5l44.1,22.6
		C388,217.7,390,215.8,392,214z M672.8,118.7V692c-1.2,66.8-52.6,89.3-100,106.8l-37.2,10.4c-55.7,7.2-109.8,20.7-183.4,97.4
		c-0.1-0.1-0.3-0.3-0.3-0.4c-0.1,0.1-0.3,0.3-0.3,0.4c-73.6-76.6-127.7-90.3-183.4-97.4l-37.2-10.4c-47.5-17.6-98.9-40.2-100-106.8
		V118.7c87.6,69.4,214.9,58,290.2-28.2c12.4-14.2,22.6-29.6,30.6-45.8c8.1,16.2,18.3,31.6,30.6,45.8
		C458,176.7,585.3,188.1,672.8,118.7z M513.3,340.7l26.9-21.4h-33.6l-10.7-30.4l-10.7,30.4h-32.5l26,21.3l-10.7,31.7l27.6-20
		l27.8,21.1L513.3,340.7z M451.9,220L451.9,220l13,10.6l13,10.6l-5.3,15.8l-5.3,15.8l0,0l0,0l27.6-20l27.8,21.1l-10.2-32.7
		l26.9-21.4l0,0l0,0h-33.6l-10.7-30.4l-10.7,30.4h-32.5V220z M269.3,357.9c5.2-14.5,21.6-57.4,45.6-96.6l-16.8-8.6
		c1-2.1,2.2-4.2,3.3-6.3l41.9,21.4c-1.3,2-2.5,3.9-3.7,6l-15.9-8.2c-24.9,38.3-44.9,83.7-50.3,96.5c15.8,2,101.6,8.6,149.2-64.8
		c39-60.1,14.7-125.5,9-138.8c-7.2,5.2-21.6,16-38.3,30.5l17.2,8.7c-2,1.6-3.9,3.3-5.9,5l-42.6-21.8c2.2-1.6,4.4-3.1,6.5-4.6l14,7.2
		c18.9-15.4,34.7-23.9,43.3-27.9c-20.3-1.7-100.2-3.8-141.1,62.5C244.7,282.8,263.3,342.4,269.3,357.9z M164.7,220L164.7,220
		l13,10.6l13,10.6l-5.3,15.8l-5.3,15.8l0,0l0,0l27.8-20l27.8,21.1l-10.3-32.7l26.9-21.4l0,0l0,0h-33.6l-10.7-30.4l-10.7,30.4h-32.5
		V220z M164.7,319.3l26,21.3L180,372.2l27.8-20l27.8,21.1l-10.3-32.7l26.9-21.4h-33.6l-10.7-30.4l-10.7,30.4H164.7L164.7,319.3z
		 M57.3,220L57.3,220l13,10.6l13,10.6L78,256.9l-5.3,15.8l0,0l0,0l27.6-19.7l27.8,21.1l-10.2-32.7l26.9-21.4l0,0l0,0H111l-10.7-30.4
		L89.6,220H57.3L57.3,220z M58.2,319.3l26,21.3l-10.7,31.7l27.6-20l27.8,21.1l-10.2-32.7l26.9-21.4h-33.6l-10.7-30.4l-10.7,30.4
		H58.2L58.2,319.3z M641.1,395.6H63v275.3c1.2,61.3,47.3,82,90.1,98.2l33.4,9.5c50.2,6.5,99,19,165.2,89.5c0.1-0.1,0.1-0.3,0.3-0.4
		c0.1,0.1,0.1,0.3,0.3,0.4c66.3-70.3,115-82.9,165.2-89.5l33.4-9.5c42.8-16.2,88.9-36.9,90.1-98.2V395.6H641.1z M559.4,220
		L559.4,220l13,10.6l13,10.6l-5.3,15.8l-5.3,15.8l0,0l0,0l27.8-20l27.8,21.1L620,241.1l26.9-21.4l0,0l0,0h-33.6l-10.7-30.4
		l-10.7,30.4h-32.5V220z M559.4,319.3l26,21.3l-10.7,31.7l27.8-20l27.8,21.1l-10.3-32.7l26.9-21.4h-33.6l-10.7-30.4l-10.7,30.4
		H559.4L559.4,319.3z"/>
	<path class="st1" d="M382.1,49.2C369,33.9,358.3,17.3,349.5,0c-8.7,17.3-19.4,33.9-32.6,49.2C234.6,144.5,124,176.5,0,64.6v649.8
		c1.3,73.8,57.4,98.7,109.2,118.2l40.6,11.5c60.8,7.8,119.7,23,199.8,107.2c80.1-84.3,139-99.4,199.8-107.2l40.6-11.5
		c51.8-19.4,107.9-44.3,109.2-118.2V64.6C575,176.5,464.4,144.5,382.1,49.2z M672.8,692c-1.2,66.8-52.6,89.3-100,106.8l-37.2,10.4
		c-55.7,7.2-109.8,20.7-183.4,97.4c-0.1-0.1-0.3-0.3-0.3-0.4c-0.1,0.1-0.3,0.3-0.3,0.4c-73.6-76.6-127.7-90.3-183.4-97.4l-37.2-10.4
		c-47.5-17.6-98.9-40.2-100-106.8V118.7c87.6,69.4,214.9,58,290.2-28.2c12.4-14.2,22.6-29.6,30.6-45.8c8.1,16.2,18.3,31.6,30.6,45.8
		c75.4,86.2,202.5,97.6,290.2,28.2L672.8,692L672.8,692z M602.4,189.6l10.7,30.4h33.8L620,241.4l10.3,32.7L602.4,253l-27.8,20
		l10.7-31.7l-26-21.3h32.5L602.4,189.6z M591.8,319.3h-32.5l26,21.3l-10.7,31.7l27.8-20l27.8,21.1l-10.3-32.7l26.9-21.4h-33.6
		l-10.7-30.4L591.8,319.3z M485.2,319.3h-32.5l26,21.3l-10.7,31.7l27.6-20l27.8,21.1l-10.3-32.7l26.9-21.4h-33.6l-10.7-30.4
		L485.2,319.3z M484.4,220h-32.5l26.1,21.3L467.3,273l27.6-20l27.8,21.1l-10.2-32.7l26.9-21.4h-33.6l-10.7-30.4L484.4,220z
		 M207.9,189.6l10.7,30.4h33.6l-26.9,21.4l10.3,32.7L207.9,253l-27.8,20l10.7-31.7l-26-21.3h32.5L207.9,189.6z M197.2,319.3h-32.5
		l26,21.3L180,372.2l27.8-20l27.8,21.1l-10.3-32.7l26.9-21.4h-33.6l-10.7-30.4L197.2,319.3z M90.5,319.3H58.2l26,21.3l-10.7,31.7
		l27.6-20l27.8,21.1l-10.2-32.7l26.9-21.4h-33.6l-10.7-30.4L90.5,319.3z M89.7,220H57.3l26,21.3L72.5,273l27.8-20l27.8,21.1
		l-10.2-32.7l26.9-21.4H111l-10.7-30.4L89.7,220z M431.7,158.6c-7.2,5.2-21.6,16-38.3,30.5l17.2,8.7c-2,1.6-3.9,3.3-5.9,5L362,181
		c2.2-1.6,4.4-3.1,6.5-4.6l14,7.2c18.9-15.4,34.7-23.9,43.3-27.9c-20.3-1.7-100.2-3.8-141.1,62.5c-40,64.7-21.4,124.3-15.4,139.8
		c5.2-14.5,21.6-57.4,45.6-96.6l-16.8-8.6c1-2.1,2.2-4.2,3.3-6.3l41.9,21.4c-1.3,2-2.5,3.9-3.7,6l-15.9-8.2
		c-24.9,38.3-44.9,83.7-50.3,96.5c15.8,2,101.6,8.6,149.2-64.8C461.7,237.4,437.4,172,431.7,158.6z M352.9,255l-43-22
		c1.4-2.2,3-4.3,4.6-6.4l43.6,22.3C356.3,250.8,354.6,252.9,352.9,255z M369,236.6L324.7,214c1.7-1.8,3.3-3.7,5-5.3l44.3,22.7
		C372.4,233.1,370.7,234.8,369,236.6z M385.9,219.6l-44.1-22.6c2.1-1.8,4.2-3.7,6.4-5.5L392,214C390,215.8,388,217.7,385.9,219.6z
		 M63,395.6v275.3c1.2,61.3,47.3,82,90.1,98.2l33.4,9.5c50.2,6.5,99,19,165.2,89.5c0.1-0.1,0.1-0.3,0.3-0.4c0.1,0.1,0.1,0.3,0.3,0.4
		c66.3-70.3,115-82.9,165.2-89.5l33.4-9.5c42.8-16.2,88.9-36.9,90.1-98.2V395.6H63z M281.2,475.6H267v252.8v29.1v0.3l-49.2-15.3
		l-55.3-158.1v9.1v81.6c11.1,4.4,18,8.6,18,8.6l3.9,49.2c0,0-35.3-15.1-49.6-18.8c-17.6-4.4-42-5.5-42-5.5l-3.5-44.3
		c0,0,10.2,0,21.9,0.7v-71.5V473H96.8v-43.6h14.6h51.1v0.1l53.3,152.6V475.6H201v-43.6h14.9H267h14.2V475.6L281.2,475.6z
		 M448.4,460.3v15.5v25.6h-34.6l-11-25.6h-33.6v80.3h26.2l6.9-19.3H431v19.3v20.3v1.3v21.8v18h-28.7l-6.4-18h-26.7v66v60.4v14.9
		c10.7,4.7,17.3,8.9,17.3,8.9v43.7c0,0-34-15.9-47.9-20.1c-17.1-5.2-41.3-7.8-41.3-7.8v-39.5c0,0,9.7,0.7,20.9,2v-2v-38.3v-22v-66
		V556v-80.3H300v-43.6h18.3h51.1h79.3v28.2H448.4z M611.5,666.3v38.7v3.8c0,0-40.3,3.5-77.9,18.7c-19.6,7.8-59.7,30.6-75.9,40v-49.8
		c5.9-3.8,13.3-8.1,22-12.7v-24.5v-48.6V475.8l-14.9-6.8v-36.9h14.9h24.9h1.3h24.9h14.9V469l-14.9,6.8v156.1v48.6v4.2
		c12.3-3.4,26.9-6.9,40.3-9.9v-62.1h40.3V666.3z"/>
	<path class="st2" d="M448.4,432.1v28.2v15.5v25.6h-34.6l-11-25.6h-33.6v80.3h26.2l6.9-19.3H431v19.3v20.3v1.3v21.8v18h-28.7
		l-6.4-18h-26.7v66v60.4v14.9c10.7,4.7,17.3,8.9,17.3,8.9v43.7c0,0-34-15.9-47.9-20.1c-17.1-5.2-41.3-7.8-41.3-7.8v-39.5
		c0,0,9.7,0.7,20.9,2v-2v-38.3v-22v-66V556v-80.3H300v-43.6h18.3h51.1L448.4,432.1L448.4,432.1z M267,432.1h-51.1H201v43.6h14.9
		v106.6l-53.3-152.6v-0.1h-51.1H96.8V473h14.6v120.5V665c-11.7-0.7-21.9-0.7-21.9-0.7l3.5,44.3c0,0,24.4,0.9,42,5.5
		c14.2,3.7,49.6,18.8,49.6,18.8l-3.9-49.2c0,0-6.9-4.2-18-8.6v-81.6v-9.1l55.2,158.1l49.2,15.3v-0.3v-29.1V475.6h14.2v-43.6
		L267,432.1L267,432.1z M571.2,612.7v62.1c-13.4,3-28.2,6.5-40.3,9.9v-4.2v-48.6V475.8l14.9-6.8v-36.9h-14.9H506h-1.3h-24.9h-14.9
		V469l14.9,6.8v156.1v48.6v24.5c-8.7,4.4-16,8.9-22,12.7v49.8c16.2-9.3,56.3-32.1,75.9-40c37.6-15.1,77.9-18.7,77.9-18.7v-3.8v-38.7
		v-53.6H571.2L571.2,612.7z"/>
</g>
</svg>
